<svg xmlns="http://www.w3.org/2000/svg" version="1.1" xmlns:xlink="http://www.w3.org/1999/xlink" xmlns:svgjs="http://svgjs.dev/svgjs" viewBox="0 0 800 800" opacity="1"><defs><symbol id="bbburst-shape-1" viewBox="0 0 194 167"><path d="m97 0 96.129 166.5H.871L97 0Z"></path></symbol><symbol id="bbburst-shape-4" viewBox="0 0 149 143"><path d="M71.647 2.781c.898-2.764 4.808-2.764 5.706 0l15.445 47.534a3 3 0 0 0 2.853 2.073h49.98c2.906 0 4.115 3.719 1.764 5.427L106.96 87.193a2.999 2.999 0 0 0-1.09 3.354l15.445 47.534c.898 2.764-2.266 5.062-4.617 3.354l-40.435-29.378a3 3 0 0 0-3.526 0l-40.435 29.378c-2.351 1.708-5.515-.59-4.617-3.354L43.13 90.547a3 3 0 0 0-1.09-3.354L1.605 57.815c-2.35-1.708-1.142-5.427 1.764-5.427h49.98a3 3 0 0 0 2.853-2.073L71.647 2.781Z"></path></symbol><symbol id="bbburst-shape-6" viewBox="0 0 133 116"><path d="M59.7487 10.2513c-13.6683-13.66839-35.8291-13.66839-49.4974 0-13.66839 13.6683-13.66839 35.8291 0 49.4974l49.4974-49.4974ZM66.5 66.5 41.7513 91.2487 66.5 115.997l24.7487-24.7483L66.5 66.5Zm56.249-6.7513c13.668-13.6683 13.668-35.8291 0-49.4974-13.669-13.66839-35.8294-13.66839-49.4977 0l49.4977 49.4974Zm-112.4977 0 31.5 31.5 49.4974-49.4974-31.5-31.5-49.4974 49.4974Zm80.9974 31.5 31.5003-31.5-49.4977-49.4974-31.5 31.5 49.4974 49.4974Z"></path></symbol><symbol id="bbburst-shape-8" viewBox="0 0 87 168"><path d="m12 12 31.2546 18.0749c16.4102 9.4902 20.014 31.6325 7.4603 45.8369L36.3296 92.1884c-12.5684 14.2206-8.9394 36.3916 7.5068 45.8636L75 156" stroke-width="14" stroke-linecap="round" stroke-linejoin="round"></path></symbol><symbol id="bbburst-shape-10" viewBox="0 0 145 145"><circle cx="72.5" cy="72.5" r="61.5" fill="none" stroke-width="22"></circle></symbol></defs><use xlink:href="#bbburst-shape-8" width="12.9301435383101" opacity="0.8524457195145153" transform="matrix(0.9935321736320872,0.11355095753845505,-0.11355095753845505,0.9935321736320872,488.47846983247035,-42.42431925087726)" fill="none" stroke="#ff5c58"></use><use xlink:href="#bbburst-shape-6" width="15.105082048213466" opacity="0.751054658563741" transform="matrix(0.8282370213679835,-0.5603779407109905,0.5603779407109905,0.8282370213679835,220.1217001696574,172.9206304675722)" fill="#ffa6d5"></use><use xlink:href="#bbburst-shape-4" width="31.76369282230138" opacity="0.22776306798241097" transform="matrix(0.992972497204015,0.11834534125356344,-0.11834534125356344,0.992972497204015,699.2956214449002,222.50208627493987)" fill="#2c2891"></use><use xlink:href="#bbburst-shape-4" width="20.519379267586682" opacity="0.1766683263577179" transform="matrix(0.8824105993520093,-0.4704801102610266,0.4704801102610266,0.8824105993520093,572.0229864325071,82.16242344281034)" fill="#2c2891"></use><use xlink:href="#bbburst-shape-6" width="32.01054420231154" opacity="0.3738932618442715" transform="matrix(0.8769807650267923,0.4805254808779884,-0.4805254808779884,0.8769807650267923,299.73854356209796,-1.5620010208135682)" fill="#00a19d"></use><use xlink:href="#bbburst-shape-10" width="30.361813830078912" opacity="0.4182703853587725" transform="matrix(0.8877141927638317,-0.4603949521504972,0.4603949521504972,0.8877141927638317,-37.20091467547621,157.42945584101795)" fill="none" stroke="#ffa6d5"></use><use xlink:href="#bbburst-shape-6" width="14.379162043223355" opacity="0.7004498468918907" transform="matrix(0.9488207760782054,0.3158150327048289,-0.3158150327048289,0.9488207760782054,494.752738115246,150.70690211882032)" fill="#ffa6d5"></use><use xlink:href="#bbburst-shape-6" width="36.13808989985219" opacity="0.21833863467741244" transform="matrix(0.9558859716221838,-0.2937379942328089,0.2937379942328089,0.9558859716221838,60.07858242534493,-262.7701950763889)" fill="#ffa6d5"></use><use xlink:href="#bbburst-shape-6" width="23.90769374002947" opacity="0.6515932971275438" transform="matrix(0.9769611245824862,-0.21341734009804333,0.21341734009804333,0.9769611245824862,418.6989236097366,-93.98833289004301)" fill="#00a19d"></use><use xlink:href="#bbburst-shape-10" width="24.72578526722564" opacity="0.31043435964562494" transform="matrix(0.9614943703619765,-0.2748246272847948,0.2748246272847948,0.9614943703619765,557.1664305587701,154.65757754102788)" fill="none" stroke="#00a19d"></use><use xlink:href="#bbburst-shape-6" width="11.89170266167983" opacity="0.9626425702524048" transform="matrix(0.9950750996492818,-0.09912389246782002,0.09912389246782002,0.9950750996492818,350.58663152391523,18.924162128626676)" fill="#2c2891"></use><use xlink:href="#bbburst-shape-6" width="34.01496970930293" opacity="0.2399724845487966" transform="matrix(0.9311037899358316,0.36475434523406386,-0.36475434523406386,0.9311037899358316,818.2508684771781,-162.82361529383897)" fill="#ffa6d5"></use><use xlink:href="#bbburst-shape-4" width="11.017820095931015" opacity="0.9167033114492505" transform="matrix(0.9914710305597808,-0.1303272633055962,0.1303272633055962,0.9914710305597808,353.3842358714985,-31.701104323963307)" fill="#00a19d"></use><use xlink:href="#bbburst-shape-10" width="44.84427560002976" opacity="0.030213676578198734" transform="matrix(0.96195716962061,-0.27320029980859284,0.27320029980859284,0.96195716962061,621.9234810748767,-235.56120577578218)" fill="none" stroke="#00a19d"></use><use xlink:href="#bbburst-shape-10" width="10.322678692161098" opacity="0.9204958017415386" transform="matrix(0.995453685226052,-0.09524684020938542,0.09524684020938542,0.995453685226052,326.83957349106265,21.920117080015928)" fill="none" stroke="#2c2891"></use><use xlink:href="#bbburst-shape-6" width="41.075573096350155" opacity="-0.09202230689478119" transform="matrix(0.996242928234761,0.0866027017028274,-0.0866027017028274,0.996242928234761,756.9111063247457,-352.43935485385305)" fill="#ffa6d5"></use><use xlink:href="#bbburst-shape-6" width="30.75290844911882" opacity="0.4480205091925181" transform="matrix(0.8679993422030338,-0.49656534508068595,0.49656534508068595,0.8679993422030338,111.51285528616509,296.74830890791026)" fill="#2c2891"></use><use xlink:href="#bbburst-shape-4" width="10.819628658145962" opacity="0.9167433018869328" transform="matrix(0.9360396818379898,-0.3518944643279215,0.3518944643279215,0.9360396818379898,287.0382351906338,9.493561642954035)" fill="#ff5c58"></use><use xlink:href="#bbburst-shape-6" width="32.21524603707797" opacity="0.43972551295109674" transform="matrix(0.878994125203896,0.4768325994067914,-0.4768325994067914,0.878994125203896,574.7953884487488,-211.39520028484654)" fill="#ffa6d5"></use><use xlink:href="#bbburst-shape-6" width="21.312758073988608" opacity="0.641180850032915" transform="matrix(0.7932984085323037,-0.608833010783839,0.608833010783839,0.7932984085323037,227.83955928481748,229.5250345900344)" fill="#ffa6d5"></use><use xlink:href="#bbburst-shape-6" width="40.642367640260005" opacity="0.07854868681183624" transform="matrix(0.9151703163726467,-0.4030673542106702,0.4030673542106702,0.9151703163726467,12.946722039631794,401.27942197078266)" fill="#ffbd9b"></use><use xlink:href="#bbburst-shape-4" width="23.950079933375054" opacity="0.36474803268089195" transform="matrix(0.7478941895241966,0.6638179579342103,-0.6638179579342103,0.7478941895241966,375.28191915898805,143.92302748155458)" fill="#ffbd9b"></use><use xlink:href="#bbburst-shape-6" width="30.610054597179094" opacity="0.28147884097807985" transform="matrix(0.9998898804944729,0.014840043286619546,-0.014840043286619546,0.9998898804944729,410.5268029522301,-322.9046606603258)" fill="#00a19d"></use><use xlink:href="#bbburst-shape-4" width="30.130540301634404" opacity="0.5334281197101398" transform="matrix(0.9377367181551669,0.3473468690280325,-0.3473468690280325,0.9377367181551669,703.912036354211,-89.85404427169544)" fill="#2c2891"></use><use xlink:href="#bbburst-shape-6" width="35.49025275846664" opacity="0.3572655781934697" transform="matrix(0.8983604525999479,0.43925903201233857,-0.43925903201233857,0.8983604525999479,641.1846576694319,-244.6716217816467)" fill="#2c2891"></use><use xlink:href="#bbburst-shape-10" width="40.5975506911675" opacity="0.17510507530560337" transform="matrix(0.9377709098479068,0.3472545473323987,-0.3472545473323987,0.9377709098479068,156.73958751893522,-59.167100179462864)" fill="none" stroke="#00a19d"></use><use xlink:href="#bbburst-shape-10" width="34.56344764132895" opacity="0.07703323364929449" transform="matrix(0.861655450898686,0.5074937279775801,-0.5074937279775801,0.861655450898686,847.0018764173993,371.3388400491557)" fill="none" stroke="#ffbd9b"></use><use xlink:href="#bbburst-shape-10" width="24.777141464848356" opacity="0.15564507185468912" transform="matrix(0.9347134847018103,0.3554021686999093,-0.3554021686999093,0.9347134847018103,630.8008779040015,-344.7925919846812)" fill="none" stroke="#2c2891"></use><use xlink:href="#bbburst-shape-10" width="35.06734452274303" opacity="0.17269288249430692" transform="matrix(0.8752249191632748,0.4837161780172739,-0.4837161780172739,0.8752249191632748,489.08887944301796,402.909427260135)" fill="none" stroke="#00a19d"></use><use xlink:href="#bbburst-shape-8" width="21.271238903462272" opacity="0.5744833537390328" transform="matrix(0.99962734884412,0.02729768200554948,-0.02729768200554948,0.99962734884412,213.8397868450305,43.48004179549463)" fill="none" stroke="#2c2891"></use><use xlink:href="#bbburst-shape-10" width="26.672744956017013" opacity="0.28911861337732336" transform="matrix(0.8284562672833902,0.5600537592043034,-0.5600537592043034,0.8284562672833902,530.452920703156,-247.92163577803575)" fill="none" stroke="#ffbd9b"></use><use xlink:href="#bbburst-shape-4" width="25.859699387675775" opacity="0.4713984989854859" transform="matrix(0.7964463211606698,0.6047092338551108,-0.6047092338551108,0.7964463211606698,415.31458930318763,-25.45131635032851)" fill="#00a19d"></use><use xlink:href="#bbburst-shape-10" width="29.111670117657955" opacity="0.04888333423751334" transform="matrix(0.9937881384696899,0.11128852518093893,-0.11128852518093893,0.9937881384696899,660.2840895017914,-359.93758492899724)" fill="none" stroke="#ffbd9b"></use><use xlink:href="#bbburst-shape-10" width="34.872725232415796" opacity="0.30419389104879113" transform="matrix(0.8947449232899042,0.4465775657676317,-0.4465775657676317,0.8947449232899042,741.8250614233418,291.3598938893037)" fill="none" stroke="#2c2891"></use><use xlink:href="#bbburst-shape-10" width="14.933409481678487" opacity="0.8155039823904344" transform="matrix(0.9427585872306361,-0.3334760054380152,0.3334760054380152,0.9427585872306361,220.1795554482274,-47.697134870790194)" fill="none" stroke="#00a19d"></use><use xlink:href="#bbburst-shape-4" width="21.255698380628328" opacity="0.6345100134502518" transform="matrix(0.8857465242596231,0.4641692522798089,-0.4641692522798089,0.8857465242596231,738.9568915868382,64.77344075777773)" fill="#2c2891"></use><use xlink:href="#bbburst-shape-1" width="34.23780144367318" opacity="0.3660414896146248" transform="matrix(0.859430360826667,-0.51125282873481,0.51125282873481,0.859430360826667,33.13365945535935,-179.06707958253014)" fill="#ffa6d5"></use><use xlink:href="#bbburst-shape-4" width="41.79136847041184" opacity="0.2896557197259163" transform="matrix(0.9316799177523968,-0.36328023736075604,0.36328023736075604,0.9316799177523968,84.21774078689793,316.6874317660555)" fill="#ffa6d5"></use><use xlink:href="#bbburst-shape-10" width="12.63983286718781" opacity="0.839086678299227" transform="matrix(0.9886654752104252,-0.15013519949346985,0.15013519949346985,0.9886654752104252,364.4629087193666,71.03302097388053)" fill="none" stroke="#ff5c58"></use><use xlink:href="#bbburst-shape-6" width="10.554082210644829" opacity="0.8958442221275262" transform="matrix(0.7224634216243023,0.6914091440058524,-0.6914091440058524,0.7224634216243023,644.2624531706915,70.14779775732791)" fill="#00a19d"></use><use xlink:href="#bbburst-shape-10" width="9.152523238937619" opacity="0.9097392024471953" transform="matrix(0.7225621957605771,0.6913059187202533,-0.6913059187202533,0.7225621957605771,712.0830510480873,119.60565979844688)" fill="none" stroke="#ffa6d5"></use><use xlink:href="#bbburst-shape-6" width="14.848778938556556" opacity="0.7248182394793217" transform="matrix(0.9733424324292396,0.2293567292074318,-0.2293567292074318,0.9733424324292396,366.3048863594463,45.84402716275957)" fill="#2c2891"></use><use xlink:href="#bbburst-shape-1" width="33.3381525971571" opacity="-0.09844006555361329" transform="matrix(0.7510753364678737,0.6602165091465604,-0.6602165091465604,0.7510753364678737,998.3299385556714,440.8272867775103)" fill="#ffa6d5"></use><use xlink:href="#bbburst-shape-1" width="35.23366182833739" opacity="0.3877224027414492" transform="matrix(0.9301825925417614,-0.3670971867670569,0.3670971867670569,0.9301825925417614,447.1709267524705,-143.48006088361464)" fill="#00a19d"></use><use xlink:href="#bbburst-shape-10" width="40.3198088914502" opacity="0.14509487349454153" transform="matrix(0.9630379603478767,0.26936571223710243,-0.26936571223710243,0.9630379603478767,847.0984416694812,148.2285388605514)" fill="none" stroke="#ffbd9b"></use><use xlink:href="#bbburst-shape-6" width="19.791887612924512" opacity="0.6286082647254858" transform="matrix(0.9991398669989004,-0.041467169826495655,0.041467169826495655,0.9991398669989004,215.71975747312456,-54.276981290677554)" fill="#ff5c58"></use><use xlink:href="#bbburst-shape-4" width="23.944414415991854" opacity="0.569440239711187" transform="matrix(0.9963226370612589,-0.08568081978657145,0.08568081978657145,0.9963226370612589,369.6645374385157,-190.5830242110455)" fill="#ffa6d5"></use><use xlink:href="#bbburst-shape-1" width="24.442989172603866" opacity="0.6251469648337811" transform="matrix(0.9805446636167197,0.19629610962210642,-0.19629610962210642,0.9805446636167197,633.016206827022,-21.717207829266215)" fill="#ffa6d5"></use><use xlink:href="#bbburst-shape-10" width="22.402843327373017" opacity="0.5003076594903961" transform="matrix(0.9561302584786274,0.29294185228743436,-0.29294185228743436,0.9561302584786274,731.197032288078,21.948670832700316)" fill="none" stroke="#ff5c58"></use><use xlink:href="#bbburst-shape-4" width="15.405602922266844" opacity="0.7804063604858589" transform="matrix(0.8325706985794948,-0.5539187953724372,0.5539187953724372,0.8325706985794948,183.20294399829305,169.43323815762858)" fill="#2c2891"></use><use xlink:href="#bbburst-shape-6" width="30.63710164009846" opacity="0.3606283294756778" transform="matrix(0.9116965207111188,0.4108642770103534,-0.4108642770103534,0.9116965207111188,816.878395588009,-79.41413188625944)" fill="#2c2891"></use><use xlink:href="#bbburst-shape-4" width="47.24156020299412" opacity="0.14129225819127" transform="matrix(0.8987904043260769,-0.4383786138617703,0.4383786138617703,0.8987904043260769,-89.59390079736316,-201.01963021879527)" fill="#ffa6d5"></use><use xlink:href="#bbburst-shape-10" width="30.102008237460254" opacity="0.4647265343175384" transform="matrix(0.9927995692399242,-0.11978737544925594,0.11978737544925594,0.9927995692399242,481.4243910058318,197.56270418263364)" fill="none" stroke="#ffbd9b"></use><use xlink:href="#bbburst-shape-10" width="30.35876845019154" opacity="0.0923181326807303" transform="matrix(0.9993358034668418,-0.036441074480338995,0.036441074480338995,0.9993358034668418,554.4360603366327,365.3926270169916)" fill="none" stroke="#ff5c58"></use><use xlink:href="#bbburst-shape-10" width="48.40090346007463" opacity="0.04261468449122263" transform="matrix(0.9855505170223465,-0.16938175343579787,0.16938175343579787,0.9855505170223465,-48.66371195843115,250.95312598026396)" fill="none" stroke="#ff5c58"></use><use xlink:href="#bbburst-shape-4" width="14.097082308463577" opacity="0.8163532305173976" transform="matrix(0.7566254017236705,0.6538486074516747,-0.6538486074516747,0.7566254017236705,592.0792148451258,40.6132113116314)" fill="#ffbd9b"></use><use xlink:href="#bbburst-shape-10" width="26.170226825539817" opacity="0.5147281152583145" transform="matrix(0.9044405868857416,0.42659960711863676,-0.42659960711863676,0.9044405868857416,646.9059841512321,232.45338982234773)" fill="none" stroke="#2c2891"></use><use xlink:href="#bbburst-shape-8" width="18.84526862261139" opacity="0.7551289876033935" transform="matrix(0.9271576808887158,0.3746713690276564,-0.3746713690276564,0.9271576808887158,437.39399095721615,-11.550401415505576)" fill="none" stroke="#2c2891"></use><use xlink:href="#bbburst-shape-6" width="21.095225616596178" opacity="0.5298850856994177" transform="matrix(0.954770903938761,0.29734243052743303,-0.29734243052743303,0.954770903938761,325.8811475748436,121.11839670192046)" fill="#ffbd9b"></use><use xlink:href="#bbburst-shape-8" width="29.30898652819513" opacity="0.30665491826137237" transform="matrix(0.8983498969587335,0.43928061946121977,-0.43928061946121977,0.8983498969587335,870.8441845884884,82.18486745037018)" fill="none" stroke="#00a19d"></use><use xlink:href="#bbburst-shape-4" width="24.038371132702938" opacity="0.5757536966604881" transform="matrix(0.7710971187128068,-0.6367175461009438,0.6367175461009438,0.7710971187128068,278.7437220461236,226.06924666725848)" fill="#ffbd9b"></use><use xlink:href="#bbburst-shape-4" width="23.314634357977297" opacity="0.5561392998914994" transform="matrix(0.9685990920595858,-0.24862783203283187,0.24862783203283187,0.9685990920595858,228.79812282434682,-174.88627012774836)" fill="#ff5c58"></use><use xlink:href="#bbburst-shape-6" width="25.07775065820151" opacity="0.633612375191565" transform="matrix(0.911919419704634,-0.41036931167615787,0.41036931167615787,0.911919419704634,291.5983958306714,-110.18872807243466)" fill="#00a19d"></use><use xlink:href="#bbburst-shape-4" width="25.411948911226617" opacity="0.5786987124587268" transform="matrix(0.8037497035742014,0.594967573910027,-0.594967573910027,0.8037497035742014,476.26033004764565,-43.01589378520998)" fill="#ffa6d5"></use><use xlink:href="#bbburst-shape-10" width="29.84334725387139" opacity="0.15501111916318555" transform="matrix(0.9963924927824794,-0.0848645999620371,0.0848645999620371,0.9963924927824794,-10.355114748964176,120.49740875534019)" fill="none" stroke="#00a19d"></use><use xlink:href="#bbburst-shape-8" width="18.290697695757874" opacity="0.7266613370720184" transform="matrix(0.9353885057988107,-0.353621751620949,0.353621751620949,0.9353885057988107,278.5714876026699,-90.55869171435666)" fill="none" stroke="#00a19d"></use><use xlink:href="#bbburst-shape-6" width="35.315933440805104" opacity="0.20835728264893383" transform="matrix(0.7803485117244918,-0.6253448650539721,0.6253448650539721,0.7803485117244918,-219.69843628803133,116.95843060325348)" fill="#ffbd9b"></use><use xlink:href="#bbburst-shape-4" width="17.21145701883237" opacity="0.7410398524415521" transform="matrix(0.9979388565827052,-0.06417194497911734,0.06417194497911734,0.9979388565827052,318.05045607775463,-104.932817866922)" fill="#ffa6d5"></use><use xlink:href="#bbburst-shape-10" width="16.53620878359377" opacity="0.732441080218336" transform="matrix(0.9283894421880067,-0.3716087238397962,0.3716087238397962,0.9283894421880067,184.824093999612,136.75218575446365)" fill="none" stroke="#ffa6d5"></use><use xlink:href="#bbburst-shape-10" width="11.45449527581254" opacity="0.9090917429996284" transform="matrix(0.7481633416003342,0.6635145923681119,-0.6635145923681119,0.7481633416003342,620.2262502980795,95.86257553931648)" fill="none" stroke="#00a19d"></use><use xlink:href="#bbburst-shape-10" width="27.49434499330488" opacity="0.5070394027229561" transform="matrix(0.9942282724454474,-0.10728533110421543,0.10728533110421543,0.9942282724454474,557.6181230795696,-53.90430487239769)" fill="none" stroke="#ffbd9b"></use><use xlink:href="#bbburst-shape-6" width="17.808130993211293" opacity="0.6292713403391066" transform="matrix(0.9992408694698761,0.03895747400802455,-0.03895747400802455,0.9992408694698761,310.5764602729081,-136.40491094550822)" fill="#2c2891"></use><use xlink:href="#bbburst-shape-8" width="39.36736638056165" opacity="0.24382176879732076" transform="matrix(0.9005473491852198,0.4347579463051524,-0.4347579463051524,0.9005473491852198,260.3433435878099,199.36924853304538)" fill="none" stroke="#ffa6d5"></use><use xlink:href="#bbburst-shape-8" width="15.270669322692605" opacity="0.8556294898520923" transform="matrix(0.9221066005496968,-0.38693593426132156,0.38693593426132156,0.9221066005496968,175.9179774635706,15.57822865045506)" fill="none" stroke="#ffbd9b"></use><use xlink:href="#bbburst-shape-6" width="28.03443126952831" opacity="0.534983775361214" transform="matrix(0.7913918307327005,-0.6113092263736453,0.6113092263736453,0.7913918307327005,277.06175583254753,-69.80566106356386)" fill="#ffa6d5"></use><use xlink:href="#bbburst-shape-10" width="9.886698411243453" opacity="0.9724504791298194" transform="matrix(0.9898027594399781,-0.14244471701332054,0.14244471701332054,0.9898027594399781,350.3771979508642,2.865102519949403)" fill="none" stroke="#ffa6d5"></use><use xlink:href="#bbburst-shape-4" width="17.140926167244913" opacity="0.7635679202075163" transform="matrix(0.7392293423196025,-0.6734537693514886,0.6734537693514886,0.7392293423196025,40.868711729918175,176.12258665465345)" fill="#ffa6d5"></use><use xlink:href="#bbburst-shape-4" width="11.524557163603795" opacity="0.8977796520491386" transform="matrix(0.8411737405492598,0.5407649565295134,-0.5407649565295134,0.8411737405492598,592.9811363240307,102.55047864630905)" fill="#00a19d"></use><use xlink:href="#bbburst-shape-4" width="38.29674592810291" opacity="0.22641552265125842" transform="matrix(0.9612070986481527,0.27582768807427666,-0.27582768807427666,0.9612070986481527,653.253950284498,-298.1993937177689)" fill="#ff5c58"></use><use xlink:href="#bbburst-shape-4" width="31.520749811938774" opacity="0.37805641031251713" transform="matrix(0.7836077746793562,-0.6212558695594491,0.6212558695594491,0.7836077746793562,297.04895716400256,-134.71947838520674)" fill="#ff5c58"></use><use xlink:href="#bbburst-shape-6" width="16.12693224323348" opacity="0.647268313843341" transform="matrix(0.7871359621582034,0.6167795206370582,-0.6167795206370582,0.7871359621582034,782.4398090277787,150.9511314855099)" fill="#ffa6d5"></use><use xlink:href="#bbburst-shape-1" width="11.915478928604063" opacity="0.8254308742693055" transform="matrix(0.9473606278551591,0.32016845689399,-0.32016845689399,0.9473606278551591,480.60358708938026,85.66535720848503)" fill="#2c2891"></use><use xlink:href="#bbburst-shape-8" width="35.23890741787996" opacity="0.07620256257434388" transform="matrix(0.999352843999738,0.03597072684329874,-0.03597072684329874,0.999352843999738,32.65050512566289,-200.93259079151147)" fill="none" stroke="#2c2891"></use><use xlink:href="#bbburst-shape-6" width="20.185189743880645" opacity="0.6594494049018507" transform="matrix(0.9183608777472171,-0.3957439806533525,0.3957439806533525,0.9183608777472171,184.55877207938155,-108.92771595851397)" fill="#ffa6d5"></use><use xlink:href="#bbburst-shape-8" width="20.142047500185097" opacity="0.6695806076760898" transform="matrix(0.969440870000063,0.24532508957202304,-0.24532508957202304,0.969440870000063,483.98274390260633,-138.87109797007798)" fill="none" stroke="#00a19d"></use><use xlink:href="#bbburst-shape-6" width="45.69407809018759" opacity="0.18024194932326798" transform="matrix(0.8195021521186271,-0.5730761054807105,0.5730761054807105,0.8195021521186271,404.45677830353895,-183.72366860924916)" fill="#2c2891"></use><use xlink:href="#bbburst-shape-10" width="18.667635718155186" opacity="0.6537339927145078" transform="matrix(0.9451270753164117,0.3267029407640001,-0.3267029407640001,0.9451270753164117,387.14819806291314,97.21091266757139)" fill="none" stroke="#00a19d"></use><use xlink:href="#bbburst-shape-4" width="26.64976891210516" opacity="0.600517160961721" transform="matrix(0.8167749665669997,0.5769563709583911,-0.5769563709583911,0.8167749665669997,539.0161826386371,226.1724406099126)" fill="#ffbd9b"></use><use xlink:href="#bbburst-shape-10" width="15.748164300576018" opacity="0.7685991388113756" transform="matrix(0.8285890257663727,-0.5598573268070476,0.5598573268070476,0.8285890257663727,253.65716328080913,11.603321973436664)" fill="none" stroke="#00a19d"></use><use xlink:href="#bbburst-shape-8" width="12.678895558391869" opacity="0.8359531365087917" transform="matrix(0.9442997462526144,-0.3290865983707754,0.3290865983707754,0.9442997462526144,191.4019587168069,44.659430403462125)" fill="none" stroke="#2c2891"></use><use xlink:href="#bbburst-shape-8" width="12.361827435568443" opacity="0.8190593558701778" transform="matrix(0.9901690181112922,0.13987607219435144,-0.13987607219435144,0.9901690181112922,482.88558569845475,-71.34385841337854)" fill="none" stroke="#ff5c58"></use><use xlink:href="#bbburst-shape-10" width="12.80171289672956" opacity="0.7417522163861088" transform="matrix(0.9566190167646688,-0.29134182117265334,0.29134182117265334,0.9566190167646688,384.2016145588166,64.8870155261867)" fill="none" stroke="#2c2891"></use><use xlink:href="#bbburst-shape-4" width="26.82558586149757" opacity="0.22189064957656923" transform="matrix(0.9933694586670243,-0.11496572788263024,0.11496572788263024,0.9933694586670243,455.93404141675455,334.86004150293803)" fill="#ff5c58"></use><use xlink:href="#bbburst-shape-10" width="34.8726833179777" opacity="0.19369603249618572" transform="matrix(0.9610014141671842,0.2765434540333076,-0.2765434540333076,0.9610014141671842,526.0823586674087,372.1807889385834)" fill="none" stroke="#00a19d"></use><use xlink:href="#bbburst-shape-4" width="17.34624200367903" opacity="0.6775496096397768" transform="matrix(0.8437905726339063,-0.5366725906305859,0.5366725906305859,0.8437905726339063,310.987950085605,9.060324549492861)" fill="#2c2891"></use><use xlink:href="#bbburst-shape-6" width="30.890761580818673" opacity="0.35245328238982954" transform="matrix(0.9921228861840313,0.12526842662805152,-0.12526842662805152,0.9921228861840313,219.42236366776115,197.5099722455074)" fill="#00a19d"></use><use xlink:href="#bbburst-shape-8" width="14.358406995452311" opacity="0.8215961934664407" transform="matrix(0.928989453302349,0.3701061951021661,-0.3701061951021661,0.928989453302349,619.01701603802,46.157250058936256)" fill="none" stroke="#ff5c58"></use><use xlink:href="#bbburst-shape-10" width="25.956991599099535" opacity="0.12375351297742831" transform="matrix(0.9957510741780787,-0.09208582015273768,0.09208582015273768,0.9957510741780787,712.0165122243427,-153.95086321246407)" fill="none" stroke="#ffbd9b"></use><use xlink:href="#bbburst-shape-8" width="26.868069377322858" opacity="0.5007804644243377" transform="matrix(0.8714934117910385,0.490407211615832,-0.490407211615832,0.8714934117910385,664.2926471577513,-165.16899794276742)" fill="none" stroke="#2c2891"></use><use xlink:href="#bbburst-shape-1" width="13.970356818617677" opacity="0.7929860606642222" transform="matrix(0.9818341132794206,0.189741334455131,-0.189741334455131,0.9818341132794206,447.67360886243443,96.63273981308708)" fill="#ffa6d5"></use><use xlink:href="#bbburst-shape-4" width="18.005101185922122" opacity="0.5759700094872471" transform="matrix(0.989653609230828,0.1434772934522932,-0.1434772934522932,0.989653609230828,481.3077840563735,190.8313332185162)" fill="#ff5c58"></use><use xlink:href="#bbburst-shape-10" width="44.35429706800218" opacity="0.15746212147732797" transform="matrix(0.9705219313922863,0.2410128226600949,-0.2410128226600949,0.9705219313922863,215.407769704723,282.89147043031187)" fill="none" stroke="#2c2891"></use><use xlink:href="#bbburst-shape-6" width="13.733160038033363" opacity="0.8592153151268633" transform="matrix(0.7469260091808136,-0.6649071640531655,0.6649071640531655,0.7469260091808136,191.28718568291225,94.7272729700909)" fill="#ffa6d5"></use><use xlink:href="#bbburst-shape-8" width="17.0934491523575" opacity="0.7884883461615476" transform="matrix(0.7870259016671556,-0.616919954374148,0.616919954374148,0.7870259016671556,216.3830151093813,155.08748033656065)" fill="none" stroke="#ffa6d5"></use><use xlink:href="#bbburst-shape-6" width="24.45011065705495" opacity="0.5223896364313525" transform="matrix(0.8144374441719183,0.5802513675388568,-0.5802513675388568,0.8144374441719183,407.4759046159552,56.62998891330017)" fill="#ffa6d5"></use><use xlink:href="#bbburst-shape-1" width="38.28262730203685" opacity="0.2706953011812969" transform="matrix(0.7836523515305,-0.6211996393597776,0.6211996393597776,0.7836523515305,-163.02918907366507,-35.54176147953876)" fill="#ffbd9b"></use><use xlink:href="#bbburst-shape-10" width="22.562634710566808" opacity="0.658771868470277" transform="matrix(0.9446797036323533,-0.3279942949886311,0.3279942949886311,0.9446797036323533,155.00247479124175,139.58255053270778)" fill="none" stroke="#ffbd9b"></use><use xlink:href="#bbburst-shape-10" width="17.016079996101414" opacity="0.7342877211670158" transform="matrix(0.8989123612387645,0.43812848208276645,-0.43812848208276645,0.8989123612387645,687.156667304366,38.73898364947348)" fill="none" stroke="#ffbd9b"></use><use xlink:href="#bbburst-shape-8" width="11.654408035492354" opacity="0.860203659866301" transform="matrix(0.9061705191108773,-0.42291250903032307,0.42291250903032307,0.9061705191108773,224.29420044187214,102.89191413311733)" fill="none" stroke="#00a19d"></use><use xlink:href="#bbburst-shape-10" width="11.718819264512124" opacity="0.9593137286155566" transform="matrix(0.8792786761947692,-0.47630768373938104,0.47630768373938104,0.8792786761947692,190.6312777608387,38.926292132306344)" fill="none" stroke="#00a19d"></use><use xlink:href="#bbburst-shape-1" width="12.05531076980751" opacity="0.7842678234563345" transform="matrix(0.9086744063556614,-0.4175054768912455,0.4175054768912455,0.9086744063556614,321.5250933874984,14.795583238240965)" fill="#2c2891"></use><use xlink:href="#bbburst-shape-6" width="23.89945987878766" opacity="0.17295020356128699" transform="matrix(0.9762234586003167,0.21676660000663325,-0.21676660000663325,0.9762234586003167,445.1654110922358,-364.05080152152294)" fill="#00a19d"></use><use xlink:href="#bbburst-shape-1" width="37.42796458985019" opacity="0.1917860021285308" transform="matrix(0.8460307691556664,0.5331340709820293,-0.5331340709820293,0.8460307691556664,954.8688906456719,-15.338315796045265)" fill="#ffa6d5"></use><use xlink:href="#bbburst-shape-1" width="25.278449709184525" opacity="0.49470679371184156" transform="matrix(0.9991557876322534,0.04108177261233226,-0.04108177261233226,0.9991557876322534,259.9395392187309,-176.23392334727538)" fill="#ff5c58"></use><use xlink:href="#bbburst-shape-1" width="42.71187715016332" opacity="0.3506152928703682" transform="matrix(0.9695169958623859,-0.24502406970331386,0.24502406970331386,0.9695169958623859,55.093023537560214,-167.52139388336332)" fill="#ffa6d5"></use><use xlink:href="#bbburst-shape-1" width="29.445178558518627" opacity="0.4251330712037571" transform="matrix(0.8853359342937669,0.4649519152000376,-0.4649519152000376,0.8853359342937669,822.1158748496699,108.5256200305779)" fill="#ff5c58"></use><use xlink:href="#bbburst-shape-10" width="38.427263292972974" opacity="0.1338130215427611" transform="matrix(0.9967803636352667,0.0801804631512293,-0.0801804631512293,0.9967803636352667,266.75872710151873,-361.59526124537683)" fill="none" stroke="#00a19d"></use><use xlink:href="#bbburst-shape-1" width="16.1566525776896" opacity="0.7841229647232584" transform="matrix(0.8391690117763582,0.5438707288265204,-0.5438707288265204,0.8391690117763582,513.6289960953245,61.707801580983016)" fill="#ffbd9b"></use><use xlink:href="#bbburst-shape-10" width="31.413804464817968" opacity="0.02255432523593548" transform="matrix(0.8115457578580184,-0.5842888693982238,0.5842888693982238,0.8115457578580184,-103.16897707486177,-272.61071518927156)" fill="none" stroke="#ff5c58"></use><use xlink:href="#bbburst-shape-1" width="31.715425979417745" opacity="0.35721006510880093" transform="matrix(0.9981611924993258,0.060615458328086194,-0.060615458328086194,0.9981611924993258,695.9152677694109,-32.00344098111674)" fill="#ff5c58"></use><use xlink:href="#bbburst-shape-10" width="24.695584633671423" opacity="0.6743566477779255" transform="matrix(0.9498010902176062,0.31285442145101106,-0.31285442145101106,0.9498010902176062,366.9123773013161,12.876349951456291)" fill="none" stroke="#ff5c58"></use><use xlink:href="#bbburst-shape-4" width="23.90061621488506" opacity="0.3850384833823127" transform="matrix(0.9162970425985065,0.40049935046792623,-0.40049935046792623,0.9162970425985065,616.9891852136469,297.0266348794737)" fill="#ffa6d5"></use><use xlink:href="#bbburst-shape-4" width="21.802365522052497" opacity="0.6949788335576417" transform="matrix(0.8158427481524612,-0.5782738194722633,0.5782738194722633,0.8158427481524612,258.8910367787545,174.97124711221835)" fill="#ffa6d5"></use><use xlink:href="#bbburst-shape-1" width="22.242334811306254" opacity="0.7162123250911194" transform="matrix(0.8884141944366788,0.4590427203686243,-0.4590427203686243,0.8884141944366788,476.62212341303604,-43.38926787563332)" fill="#ffa6d5"></use><use xlink:href="#bbburst-shape-1" width="13.45720054650816" opacity="0.8627418312655917" transform="matrix(0.9638546858031256,0.2664284982042238,-0.2664284982042238,0.9638546858031256,548.1527566668376,51.46621230626471)" fill="#ff5c58"></use><use xlink:href="#bbburst-shape-4" width="13.592244036001542" opacity="0.9155146371022043" transform="matrix(0.8776440433638648,0.47931298036661446,-0.47931298036661446,0.8776440433638648,601.4940086580249,80.30317401184459)" fill="#00a19d"></use><use xlink:href="#bbburst-shape-6" width="13.159890644091817" opacity="0.8648912065884711" transform="matrix(0.8217372327061258,0.5698665812139527,-0.5698665812139527,0.8217372327061258,619.1885452542483,6.848987316231501)" fill="#ffa6d5"></use><use xlink:href="#bbburst-shape-10" width="13.121079358521488" opacity="0.8509459088194944" transform="matrix(0.9240116966483185,0.3823642039431721,-0.3823642039431721,0.9240116966483185,493.33708147283676,68.28149868147892)" fill="none" stroke="#00a19d"></use><use xlink:href="#bbburst-shape-1" width="18.83008493359492" opacity="0.6868311934655658" transform="matrix(0.7696871195899296,-0.6384212856236526,0.6384212856236526,0.7696871195899296,160.37985330749586,237.19440353730448)" fill="#2c2891"></use><use xlink:href="#bbburst-shape-1" width="48.12238710992023" opacity="-0.08363836564621918" transform="matrix(0.757865275367437,-0.6524110854302209,0.6524110854302209,0.757865275367437,-217.5114544220776,463.7507865276308)" fill="#ffa6d5"></use><use xlink:href="#bbburst-shape-6" width="21.80151014313717" opacity="0.5303432607953413" transform="matrix(0.8867119095983108,-0.4623223868433336,0.4623223868433336,0.8867119095983108,53.422122512576124,197.21572076822343)" fill="#2c2891"></use><use xlink:href="#bbburst-shape-8" width="13.306614752795335" opacity="0.7846609091075876" transform="matrix(0.9732886077020925,0.22958503025528973,-0.22958503025528973,0.9732886077020925,480.4766674740864,-87.62248706121215)" fill="none" stroke="#00a19d"></use><use xlink:href="#bbburst-shape-6" width="28.631676169830513" opacity="0.4649431132684102" transform="matrix(0.7652704204853401,-0.6437089276452446,0.6437089276452446,0.7652704204853401,132.0797145118089,343.8823586659578)" fill="#2c2891"></use><use xlink:href="#bbburst-shape-4" width="24.889900545673086" opacity="0.5889761980422861" transform="matrix(0.9988859912718929,0.04718873213774413,-0.04718873213774413,0.9988859912718929,377.84888243987496,182.61793231282206)" fill="#ffa6d5"></use><use xlink:href="#bbburst-shape-1" width="19.067904773772074" opacity="0.7320455763322433" transform="matrix(0.9486935681357219,0.31619695409335036,-0.31619695409335036,0.9486935681357219,585.5782181785987,-81.94092560807638)" fill="#ff5c58"></use><use xlink:href="#bbburst-shape-4" width="21.95519021906724" opacity="0.5359257716782542" transform="matrix(0.9588183332629958,-0.284020076400896,0.284020076400896,0.9588183332629958,469.31953064957025,98.28283515298682)" fill="#00a19d"></use><use xlink:href="#bbburst-shape-1" width="27.03223039487398" opacity="0.32313866907413114" transform="matrix(0.9989893389884287,-0.044947753975725306,0.044947753975725306,0.9989893389884287,333.6529730453174,303.6319334743353)" fill="#ffbd9b"></use><use xlink:href="#bbburst-shape-4" width="41.172546217313965" opacity="-0.08889065672635565" transform="matrix(0.906850111342674,0.42145328988842856,-0.42145328988842856,0.906850111342674,194.39487928431834,-308.60496976646544)" fill="#ffbd9b"></use><use xlink:href="#bbburst-shape-4" width="27.371059101000682" opacity="0.45468681266753763" transform="matrix(0.7511969967484062,-0.6600780802876088,0.6600780802876088,0.7511969967484062,-11.330140049868419,312.13715393714966)" fill="#ffa6d5"></use><use xlink:href="#bbburst-shape-6" width="22.79763192877633" opacity="0.43774544162651097" transform="matrix(0.8924234073644793,0.4511989162087744,-0.4511989162087744,0.8924234073644793,495.82324970481716,-203.91496659057475)" fill="#ffbd9b"></use><use xlink:href="#bbburst-shape-8" width="33.913313314590695" opacity="0.039843144312248446" transform="matrix(0.9987442635366778,0.05009886278728447,-0.05009886278728447,0.9987442635366778,758.0497689882977,246.02369503119843)" fill="none" stroke="#00a19d"></use><use xlink:href="#bbburst-shape-4" width="29.342707192844692" opacity="0.42565502575381475" transform="matrix(0.9610943678653909,0.2762202310791601,-0.2762202310791601,0.9610943678653909,702.1838683135456,167.88088711198674)" fill="#00a19d"></use></svg>