<svg xmlns="http://www.w3.org/2000/svg" version="1.1" xmlns:xlink="http://www.w3.org/1999/xlink" xmlns:svgjs="http://svgjs.dev/svgjs" viewBox="0 0 800 800" opacity="0.61"><defs><linearGradient x1="50%" y1="0%" x2="50%" y2="100%" id="rrreflection-grad"><stop stop-color="hsl(230, 55%, 50%)" stop-opacity="1" offset="45%"></stop><stop stop-color="hsla(127, 55%, 70%, 1.00)" stop-opacity="1" offset="100%"></stop></linearGradient><linearGradient x1="50%" y1="0%" x2="50%" y2="100%" id="rrreflection-grad-2"><stop stop-color="hsla(127, 55%, 70%, 1.00)" stop-opacity="1" offset="0%"></stop><stop stop-color="hsl(230, 55%, 50%)" stop-opacity="1" offset="45%"></stop></linearGradient><linearGradient gradientTransform="rotate(270)" x1="50%" y1="0%" x2="50%" y2="100%" id="rrreflection-grad-3"><stop stop-color="hsl(230, 55%, 50%)" stop-opacity="1" offset="45%"></stop><stop stop-color="hsla(127, 55%, 70%, 1.00)" stop-opacity="1" offset="100%"></stop></linearGradient><linearGradient gradientTransform="rotate(270)" x1="50%" y1="0%" x2="50%" y2="100%" id="rrreflection-grad-4"><stop stop-color="hsla(127, 55%, 70%, 1.00)" stop-opacity="1" offset="0%"></stop><stop stop-color="hsl(230, 55%, 50%)" stop-opacity="1" offset="45%"></stop></linearGradient></defs><g stroke-width="13" stroke="url(#rrreflection-grad)" fill="none"><circle r="355" cx="50%" cy="0"></circle><circle r="319.5" cx="50%" cy="0"></circle><circle r="284" cx="50%" cy="0"></circle><circle r="248.5" cx="50%" cy="0"></circle><circle r="213" cx="50%" cy="0"></circle><circle r="177.5" cx="50%" cy="0"></circle><circle r="142" cx="50%" cy="0"></circle><circle r="106.5" cx="50%" cy="0"></circle><circle r="71" cx="50%" cy="0"></circle><circle r="35.5" cx="50%" cy="0"></circle></g><g stroke-width="13" stroke="url(#rrreflection-grad-2)" fill="none"><circle r="355" cx="50%" cy="100%"></circle><circle r="319.5" cx="50%" cy="100%"></circle><circle r="284" cx="50%" cy="100%"></circle><circle r="248.5" cx="50%" cy="100%"></circle><circle r="213" cx="50%" cy="100%"></circle><circle r="177.5" cx="50%" cy="100%"></circle><circle r="142" cx="50%" cy="100%"></circle><circle r="106.5" cx="50%" cy="100%"></circle><circle r="71" cx="50%" cy="100%"></circle><circle r="35.5" cx="50%" cy="100%"></circle></g><g stroke-width="13" stroke="url(#rrreflection-grad-3)" fill="none"><circle r="355" cx="0" cy="50%"></circle><circle r="319.5" cx="0" cy="50%"></circle><circle r="284" cx="0" cy="50%"></circle><circle r="248.5" cx="0" cy="50%"></circle><circle r="213" cx="0" cy="50%"></circle><circle r="177.5" cx="0" cy="50%"></circle><circle r="142" cx="0" cy="50%"></circle><circle r="106.5" cx="0" cy="50%"></circle><circle r="71" cx="0" cy="50%"></circle><circle r="35.5" cx="0" cy="50%"></circle></g><g stroke-width="13" stroke="url(#rrreflection-grad-4)" fill="none"><circle r="355" cx="100%" cy="50%"></circle><circle r="319.5" cx="100%" cy="50%"></circle><circle r="284" cx="100%" cy="50%"></circle><circle r="248.5" cx="100%" cy="50%"></circle><circle r="213" cx="100%" cy="50%"></circle><circle r="177.5" cx="100%" cy="50%"></circle><circle r="142" cx="100%" cy="50%"></circle><circle r="106.5" cx="100%" cy="50%"></circle><circle r="71" cx="100%" cy="50%"></circle><circle r="35.5" cx="100%" cy="50%"></circle></g></svg>